HIERARCHY
ROOT hip
{
	OFFSET 0.000000 0.000000 0.000000
	CHANNELS 6 Xposition Yposition Zposition Xrotation Zrotation Yrotation 
	JOINT abdomen
	{
		OFFSET 0.000000 3.422050 0.000000
		CHANNELS 3 Xrotation Zrotation Yrotation 
		JOINT chest
		{
			OFFSET 0.000000 8.486693 -0.684411
			CHANNELS 3 Xrotation Zrotation Yrotation 
			JOINT neck
			{
				OFFSET 0.000000 10.266162 -0.273764
				CHANNELS 3 Xrotation Zrotation Yrotation 
				JOINT head
				{
					OFFSET 0.000000 3.148285 0.000000
					CHANNELS 3 Xrotation Zrotation Yrotation 
					End Site
					{
						OFFSET 0.000000 3.148289 0.000000
					}
				}
			}
			JOINT lCollar
			{
				OFFSET 3.422053 6.707223 -0.821293
				CHANNELS 3 Yrotation Zrotation Xrotation 
				JOINT lShldr
				{
					OFFSET 3.285171 0.000000 0.000000
					CHANNELS 3 Zrotation Yrotation Xrotation 
					JOINT lForeArm
					{
						OFFSET 10.129278 0.000000 0.000000
						CHANNELS 3 Yrotation Zrotation Xrotation 
						JOINT lHand
						{
							OFFSET 8.486692 0.000000 0.000000
							CHANNELS 3 Zrotation Yrotation Xrotation 
							End Site
							{
								OFFSET 4.106464 0.000000 0.000000
							}
						}
					}
				}
			}
			JOINT rCollar
			{
				OFFSET -3.558935 6.707223 -0.821293
				CHANNELS 3 Yrotation Zrotation Xrotation 
				JOINT rShldr
				{
					OFFSET -3.148289 0.000000 0.000000
					CHANNELS 3 Zrotation Yrotation Xrotation 
					JOINT rForeArm
					{
						OFFSET -10.266159 0.000000 0.000000
						CHANNELS 3 Yrotation Zrotation Xrotation 
						JOINT rHand
						{
							OFFSET -8.349810 0.000000 0.000000
							CHANNELS 3 Zrotation Yrotation Xrotation 
							End Site
							{
								OFFSET -4.106464 0.000000 0.000000
							}
						}
					}
				}
			}
		}
	}
	JOINT lThigh
	{
		OFFSET 5.338403 -1.642589 1.368821
		CHANNELS 3 Xrotation Zrotation Yrotation 
		JOINT lShin
		{
			OFFSET -2.053232 -20.121670 0.000000
			CHANNELS 3 Xrotation Zrotation Yrotation 
			JOINT lFoot
			{
				OFFSET 0.000000 -19.300380 -1.231939
				CHANNELS 3 Xrotation Yrotation Zrotation 
				End Site
				{
					OFFSET 0.000000 -2.463878 4.653993
				}
			}
		}
	}
	JOINT rThigh
	{
		OFFSET -5.338403 -1.642589 1.368821
		CHANNELS 3 Xrotation Zrotation Yrotation 
		JOINT rShin
		{
			OFFSET 2.053232 -20.121670 0.000000
			CHANNELS 3 Xrotation Zrotation Yrotation 
			JOINT rFoot
			{
				OFFSET 0.000000 -19.300380 -1.231939
				CHANNELS 3 Xrotation Yrotation Zrotation 
				End Site
				{
					OFFSET 0.000000 -2.463878 4.653993
				}
			}
		}
	}
}
MOTION
Frames: 10
Frame Time: 0.033264
0.000000 43.528500 0.000000 0.000000 0.000000 0.000000 0.000000 0.000000 0.000000 0.000000 0.000000 0.000000 0.000000 0.000000 0.000000 0.000000 0.000000 0.000000 0.000000 0.000000 0.000000 0.000000 0.000000 0.000000 0.000000 0.000000 0.000000 0.000000 0.000000 0.000000 0.000000 0.000000 0.000000 0.000000 0.000000 0.000000 0.000000 0.000000 0.000000 0.000000 0.000000 0.000000 0.000000 0.000000 0.000000 0.000000 0.000000 0.000000 0.000000 0.000000 0.000000 0.000000 0.000000 0.000000 0.000000 0.000000 0.000000 0.000000 0.000000 0.000000 
19.995884 5.305927 27.793583 70.997055 0.000000 0.000000 22.949068 -0.127424 -0.049060 -7.166807 -1.036691 -1.026618 -24.006269 0.000000 0.000000 -22.342703 -0.055549 -0.001506 1.813912 -5.164052 -0.105500 -22.569426 -44.932789 -51.859871 -95.075424 40.590725 41.174728 -7.000333 -0.003134 7.199666 -3.174530 9.021270 0.192595 36.425663 41.480282 -40.543148 99.709244 -43.379227 44.353661 6.996620 -0.000135 7.199450 19.706495 30.944723 56.651978 12.042237 -6.818635 16.811920 53.633724 -12.599071 3.315481 17.430765 -37.504768 -57.069817 18.657852 7.544191 -15.655839 54.741734 13.686705 -3.909499 
19.995884 5.305927 27.823954 71.441315 0.000000 0.000000 23.218678 -0.130578 -0.051818 -8.122957 -1.049827 -1.033460 -24.394964 0.000000 0.000000 -21.954084 -0.055512 -0.001504 1.336373 -4.181818 0.248842 -24.044756 -43.093533 -50.909992 -95.795616 40.456680 41.639984 -6.272915 0.640596 5.660818 -3.416689 8.606038 0.111727 37.318947 40.766685 -39.937149 100.143349 -43.181015 44.650314 6.948681 -0.149003 6.516862 19.285336 30.803984 56.409061 11.689070 -6.778030 16.889015 53.795288 -12.438876 3.181406 16.969322 -37.398666 -56.800629 18.394878 7.521339 -15.723010 54.834129 13.552119 -3.734985 
19.995884 5.305927 27.854324 71.885666 0.000000 0.000000 23.488304 -0.133720 -0.054591 -9.080181 -1.063090 -1.040088 -24.783730 0.000000 0.000000 -21.565393 -0.055475 -0.001501 0.852483 -3.200960 0.611585 -25.443565 -41.228573 -50.046680 -96.513184 40.318165 42.102253 -5.560005 1.306365 4.123643 -3.659254 8.191029 0.029149 38.193863 40.045280 -39.351505 100.574677 -42.981136 44.943962 6.902493 -0.298522 5.833985 18.865408 30.661690 56.167667 11.335935 -6.736950 16.965866 53.957150 -12.279033 3.046938 16.509090 -37.290836 -56.532867 18.131918 7.498178 -15.790072 54.926895 13.417798 -3.560332 
19.995884 5.305927 27.884695 72.330124 0.000000 0.000000 23.757952 -0.136849 -0.057378 -10.038350 -1.076476 -1.046500 -25.172554 0.000000 0.000000 -21.176647 -0.055438 -0.001499 0.362066 -2.221798 0.982854 -26.773146 -39.340935 -49.262913 -97.228012 40.175209 42.561398 -4.862481 1.993493 2.588801 -3.902240 7.776260 -0.055140 39.050957 39.316463 -38.785706 101.003288 -42.779625 45.234665 6.858064 -0.448660 5.150856 18.446733 30.517859 55.927807 10.982836 -6.695392 17.042459 54.119297 -12.119549 2.912077 16.050085 -37.181286 -56.266552 17.868975 7.474711 -15.857031 55.020035 13.283744 -3.385541 
19.995884 5.305927 27.915066 72.774673 0.000000 0.000000 24.027622 -0.139964 -0.060181 -10.997324 -1.089978 -1.052692 -25.561434 0.000000 0.000000 -20.787832 -0.055401 -0.001496 -0.135056 -1.244654 1.362778 -28.040096 -37.433491 -48.552387 -97.940002 40.027855 43.017334 -4.181190 2.701240 1.056915 -4.145662 7.361758 -0.141141 39.890732 38.580635 -38.239250 101.429161 -42.576515 45.522400 6.815409 -0.599384 4.467521 18.029324 30.372499 55.689495 10.629784 -6.653364 17.118797 54.281750 -11.960425 2.776826 15.592328 -37.070019 -56.001675 17.606062 7.450938 -15.923876 55.113548 13.149957 -3.210611 
19.995884 5.305927 27.945436 73.219284 0.000000 0.000000 24.297306 -0.143067 -0.062998 -11.956982 -1.103591 -1.058662 -25.950367 0.000000 0.000000 -20.398983 -0.055364 -0.001492 -0.639060 -0.269852 1.751488 -29.250357 -35.508991 -47.909416 -98.649071 39.876156 43.469963 -3.516930 3.428808 -0.471436 -4.389535 6.947546 -0.228853 40.713703 37.838161 -37.711647 101.852325 -42.371819 45.807182 6.774539 -0.750663 3.784020 17.613188 30.225637 55.452736 10.276782 -6.610862 17.194872 54.444500 -11.801670 2.641185 15.135851 -36.957069 -55.738304 17.343178 7.426859 -15.990616 55.207439 13.016441 -3.035545 
19.995884 5.305927 27.975807 73.663925 0.000000 0.000000 24.566994 -0.146157 -0.065830 -12.917176 -1.117310 -1.064405 -26.339321 0.000000 0.000000 -20.010096 -0.055327 -0.001489 -1.150126 0.702275 2.149116 -30.409311 -33.570061 -47.328918 -99.355087 39.720135 43.919182 -2.870464 4.175347 -1.995714 -4.633873 6.533644 -0.318277 41.520370 37.089428 -37.202400 102.272758 -42.165565 46.089008 6.735465 -0.902464 3.100397 17.198343 30.077282 55.217552 9.923846 -6.567896 17.270685 54.607548 -11.643284 2.505156 14.680664 -36.842438 -55.476421 17.080324 7.402477 -16.057240 55.301704 12.883202 -2.860341 
19.995884 5.305927 28.006178 74.108627 0.000000 0.000000 24.836700 -0.149233 -0.068677 -13.877785 -1.131130 -1.069921 -26.728317 0.000000 0.000000 -19.621183 -0.055290 -0.001485 -1.668432 1.671396 2.555798 -31.521847 -31.619272 -46.806339 -100.058014 39.559872 44.364929 -2.242508 4.939958 -3.515429 -4.878693 6.120080 -0.409414 42.311260 36.334808 -36.711040 102.690468 -41.957767 46.367886 6.698193 -1.054755 2.416692 16.784801 29.927450 54.983952 9.570973 -6.524462 17.346228 54.770893 -11.485273 2.368739 14.226790 -36.726135 -55.216076 16.817507 7.377791 -16.123749 55.396332 12.750241 -2.685000 
19.995884 5.305927 28.036549 74.553360 0.000000 0.000000 25.106409 -0.152296 -0.071538 -14.838663 -1.145043 -1.075206 -27.117321 0.000000 0.000000 -19.232254 -0.055253 -0.001481 -2.194160 2.637174 2.971673 -32.592342 -29.659042 -46.337566 -100.757706 39.395405 44.807083 -1.633733 5.721694 -5.030131 -5.124010 5.706878 -0.502266 43.086834 35.574635 -36.237068 103.105492 -41.748478 46.643845 6.662735 -1.207503 1.732948 16.372566 29.776159 54.751938 9.218178 -6.480566 17.421492 54.934547 -11.327641 2.231936 13.774252 -36.608189 -54.957268 16.554724 7.352801 -16.190142 55.491333 12.617561 -2.509522 
